PathFileType	4	(x/y/z)	S09_M20_T07
DataRate	CameraRate	NumFrames	NumMarkers	Units	OrigDataRate	OrigDataStartFrame	OrigNumFrames
240	240	7	51	mm	240	143	570
Frame#	Time	Sternum			R.Acromium			L.Acromium			Top.Head			R.ASIS			L.ASIS			R.PSIS			L.PSIS			R.Great.Tro			L.Great.Tro			R.Iliac.Crest			L.Iliac.Crest			V.Sacral			R.Thigh.Upper.Post			R.Thigh.Lower.Ant			R.Thigh.Lower.Post			R.Thigh.Upper.Ant			R.Knee.Lat			R.Knee.Med			R.Shank.Upper.Post			R.Shank.Lower.Ant			R.Shank.Lower.Post			R.Shank.Upper.Ant			R.Ankle.Lat			R.Ankle.Med			R.Heel.Upper			R.Heel.Med			R.Heel.Lat			R.Toe.Lat			R.Toe.Med			R.Toe.Tip			L.Thigh.Upper.Post			L.Thigh.Lower.Ant			L.Thigh.Lower.Post			L.Thigh.Upper.Ant			L.Knee.Lat			L.Knee.Med			L.Shank.Upper.Post			L.Shank.Lower.Ant			L.Shank.Lower.Post			L.Shank.Upper.Ant			L.Ankle.Lat			L.Ankle.Med			L.Heel.Upper			L.Heel.Med			L.Heel.Lat			L.Toe.Lat			L.Toe.Med			L.Toe.Tip			Cervical.Spine			Back			
		X1	Y1	Z1	X2	Y2	Z2	X3	Y3	Z3	X4	Y4	Z4	X5	Y5	Z5	X6	Y6	Z6	X7	Y7	Z7	X8	Y8	Z8	X9	Y9	Z9	X10	Y10	Z10	X11	Y11	Z11	X12	Y12	Z12	X13	Y13	Z13	X14	Y14	Z14	X15	Y15	Z15	X16	Y16	Z16	X17	Y17	Z17	X18	Y18	Z18	X19	Y19	Z19	X20	Y20	Z20	X21	Y21	Z21	X22	Y22	Z22	X23	Y23	Z23	X24	Y24	Z24	X25	Y25	Z25	X26	Y26	Z26	X27	Y27	Z27	X28	Y28	Z28	X29	Y29	Z29	X30	Y30	Z30	X31	Y31	Z31	X32	Y32	Z32	X33	Y33	Z33	X34	Y34	Z34	X35	Y35	Z35	X36	Y36	Z36	X37	Y37	Z37	X38	Y38	Z38	X39	Y39	Z39	X40	Y40	Z40	X41	Y41	Z41	X42	Y42	Z42	X43	Y43	Z43	X44	Y44	Z44	X45	Y45	Z45	X46	Y46	Z46	X47	Y47	Z47	X48	Y48	Z48	X49	Y49	Z49	X50	Y50	Z50	X51	Y51	Z51	

143	0.59167	-154.02	1173.3	274.63	-280.72	1415.6	425.2	-270.3	1427.2	116.96	-294.79	1717.4	264.9	-194.21	1006.1	376.8	-206.22	1007.6	129.84	-418.25	1032.1	310.48	-413.21	1042.4	221.74	-266.51	919.1	453.64	-289.2	921.36	65.612	-284.33	1083.7	427.68	-310.48	1107.1	100.21	-437.29	1004	260.22	-166.69	689.32	437.68	-62.63	626.37	392.6	-134.8	602.39	414.87	-99.789	706.63	416.08	-52.212	546.96	394.33	-64.918	526.15	271.85	-82.789	364.05	417.38	-1.9859	321.54	410.22	-66.454	289.18	412.76	-23.623	392.38	417.02	8.2968	112.42	408.32	36.65	129.04	322.83	-43.361	67.829	353.29	-19.283	42.537	326.31	-31.183	40.639	389.72	118.6	85.266	452.19	165.42	109.19	352.16	200.89	140.14	398.81	-396.2	678.2	131.36	-332.9	568.56	135.97	-399.4	589.06	154.65	-331.31	654.1	108.31	-364.85	494.02	151.92	-335.55	508.04	282.46	-449.34	377.01	152.2	-411.88	274.38	169.74	-469.61	304.02	164.98	-392.04	348.92	157.96	-508.04	110.8	201.88	-491.45	105	293.96	-587.5	81.055	257.84	-574.77	53.883	288.95	-589.6	53.43	228.71	-419.61	41.055	164.62	-374.84	38.302	271.66	-326.11	46.254	208.72	-362.48	1475.3	279.89	-414.34	1209.4	256.09
144	0.59583	-149.06	1172.5	274.64	-275.44	1414.9	425.31	-265.07	1426.5	117.09	-289.55	1716.6	265.09	-188.79	1005.3	376.64	-201.47	1007	129.66	-413.03	1031.2	310.88	-408.23	1041.7	222.12	-261.15	918.14	453.57	-284.84	920.89	65.568	-278.91	1082.8	427.75	-305.91	1106.4	100.33	-432.18	1003.2	260.64	-161.89	688.09	437.71	-57.834	625.08	392.75	-130.09	601.18	414.8	-94.93	705.36	416.28	-46.994	546.23	394.17	-59.752	525.33	271.56	-73.308	363.16	417.37	8.2784	322.39	409.51	-55.345	288.67	412.62	-14.833	392.74	416.46	23.485	113.37	407.62	50.68	130.76	321.99	-27.651	67.602	353.07	-3.1667	42.916	325.91	-14.433	40.656	389.41	134.81	88.835	450.63	180.08	114.04	350.22	215.14	145.84	396.57	-393.2	678.48	131.61	-330.57	568.43	135.89	-396.9	589.34	154.8	-328.53	653.99	108.34	-362.99	494.01	151.81	-333.22	507.79	282.27	-448.02	377.3	152.21	-410.97	274.49	169.66	-468.57	304.39	165.02	-390.83	348.96	157.84	-507.67	111.22	201.94	-491.03	105.36	294	-587.22	81.601	257.92	-574.58	54.412	289.03	-589.43	53.981	228.8	-419.55	41.06	164.63	-374.73	38.282	271.62	-325.99	46.068	208.67	-357.19	1474.6	280	-409.32	1208.8	256.33
145	0.6	-144.07	1171.7	274.66	-270.15	1414.2	425.43	-259.83	1425.7	117.24	-284.31	1715.8	265.29	-183.34	1004.5	376.49	-196.7	1006.3	129.49	-407.77	1030.4	311.28	-403.22	1040.9	222.52	-255.76	917.16	453.49	-280.45	920.41	65.531	-273.45	1081.9	427.83	-301.33	1105.7	100.45	-427.05	1002.4	261.07	-157.06	686.84	437.78	-53.025	623.75	392.92	-125.38	599.92	414.75	-90.04	704.04	416.52	-41.795	545.47	394.03	-54.611	524.47	271.28	-63.914	362.33	417.35	18.408	323.28	408.8	-44.359	288.24	412.45	-6.1442	393.13	415.9	38.462	114.46	406.88	64.51	132.58	321.12	-12.116	67.543	352.79	12.756	43.468	325.43	2.1142	40.853	389.02	150.71	92.526	449.04	194.46	118.98	348.29	229.07	151.61	394.36	-390.17	678.76	131.89	-328.24	568.31	135.81	-394.38	589.63	154.97	-325.74	653.89	108.37	-361.11	494.01	151.71	-330.86	507.54	282.08	-446.67	377.61	152.22	-410.04	274.61	169.57	-467.52	304.78	165.05	-389.6	349.01	157.72	-507.28	111.65	201.99	-490.61	105.73	294.03	-586.93	82.177	257.99	-574.37	54.976	289.11	-589.26	54.559	228.88	-419.47	41.064	164.64	-374.61	38.269	271.59	-325.87	45.884	208.62	-351.9	1473.9	280.12	-404.29	1208.1	256.59
146	0.60417	-139.06	1170.9	274.67	-264.84	1413.4	425.55	-254.59	1424.9	117.39	-279.05	1715	265.49	-177.84	1003.7	376.34	-191.91	1005.7	129.32	-402.48	1029.5	311.7	-398.17	1040.1	222.94	-250.33	916.16	453.41	-276.05	919.93	65.499	-267.96	1081	427.91	-296.74	1105	100.58	-421.87	1001.5	261.52	-152.2	685.56	437.87	-48.194	622.37	393.11	-120.66	598.64	414.71	-85.112	702.69	416.78	-36.604	544.69	393.91	-49.492	523.58	271.02	-54.614	361.54	417.3	28.397	324.21	408.08	-33.505	287.88	412.26	2.4379	393.53	415.33	53.212	115.67	406.11	78.133	134.51	320.24	3.2264	67.64	352.43	28.469	44.182	324.89	18.439	41.218	388.56	166.29	96.311	447.44	208.54	123.99	346.37	242.67	157.42	392.19	-387.13	679.06	132.18	-325.9	568.19	135.72	-391.85	589.94	155.16	-322.94	653.79	108.4	-359.22	494.02	151.61	-328.48	507.3	281.88	-445.3	377.94	152.22	-409.1	274.75	169.47	-466.44	305.2	165.08	-388.35	349.07	157.6	-506.88	112.1	202.03	-490.17	106.13	294.06	-586.63	82.785	258.05	-574.16	55.574	289.18	-589.09	55.165	228.96	-419.4	41.068	164.65	-374.49	38.263	271.55	-325.75	45.703	208.57	-346.61	1473.1	280.26	-399.24	1207.5	256.86
147	0.60833	-134.02	1170	274.69	-259.52	1412.7	425.68	-249.34	1424.2	117.55	-273.79	1714.1	265.71	-172.31	1002.9	376.19	-187.08	1005	129.15	-397.16	1028.6	312.14	-393.09	1039.4	223.37	-244.85	915.14	453.33	-271.63	919.44	65.476	-262.42	1080.1	428.01	-292.13	1104.3	100.72	-416.67	1000.7	261.99	-147.29	684.27	437.99	-43.331	620.96	393.33	-115.91	597.35	414.69	-80.135	701.31	417.07	-31.412	543.88	393.8	-44.39	522.66	270.78	-45.416	360.8	417.23	38.241	325.17	407.38	-22.795	287.59	412.04	10.91	393.94	414.77	67.72	117	405.3	91.538	136.52	319.33	18.359	67.883	352.01	43.956	45.046	324.28	34.521	41.739	388.01	181.54	100.17	445.83	222.31	129.05	344.48	255.94	163.24	390.07	-384.06	679.36	132.49	-323.56	568.08	135.64	-389.29	590.25	155.35	-320.13	653.71	108.44	-357.31	494.05	151.51	-326.07	507.06	281.68	-443.91	378.28	152.23	-408.14	274.91	169.38	-465.35	305.63	165.11	-387.08	349.15	157.47	-506.47	112.57	202.06	-489.72	106.54	294.08	-586.32	83.424	258.1	-573.94	56.205	289.25	-588.91	55.8	229.03	-419.33	41.072	164.66	-374.36	38.263	271.51	-325.63	45.524	208.52	-341.31	1472.3	280.41	-394.16	1206.7	257.15
148	0.6125	-128.96	1169.2	274.72	-254.17	1411.9	425.83	-244.08	1423.4	117.72	-268.52	1713.3	265.92	-166.73	1002	376.05	-182.22	1004.4	128.98	-391.79	1027.7	312.58	-387.98	1038.6	223.82	-239.33	914.1	453.25	-267.2	918.94	65.461	-256.85	1079.1	428.11	-287.51	1103.5	100.87	-411.43	999.83	262.47	-142.34	682.97	438.13	-38.425	619.53	393.55	-111.11	596.04	414.68	-75.103	699.91	417.38	-26.207	543.05	393.7	-39.3	521.71	270.54	-36.327	360.1	417.13	47.934	326.14	406.69	-12.235	287.35	411.79	19.27	394.35	414.22	81.971	118.42	404.46	104.72	138.61	318.4	33.265	68.26	351.5	59.2	46.046	323.59	50.339	42.399	387.38	196.43	104.06	444.22	235.77	134.13	342.63	268.88	169.05	388.02	-380.97	679.67	132.82	-321.2	567.97	135.55	-386.71	590.57	155.56	-317.3	653.62	108.48	-355.38	494.08	151.41	-323.63	506.82	281.48	-442.49	378.64	152.23	-407.16	275.08	169.28	-464.23	306.07	165.13	-385.79	349.24	157.35	-506.04	113.07	202.09	-489.25	106.97	294.09	-585.99	84.094	258.15	-573.72	56.87	289.3	-588.71	56.465	229.09	-419.25	41.076	164.66	-374.24	38.27	271.46	-325.5	45.346	208.46	-336.01	1471.5	280.58	-389.06	1206	257.45
149	0.61667	-123.88	1168.4	274.75	-248.8	1411.2	425.97	-238.82	1422.6	117.89	-263.24	1712.4	266.15	-161.11	1001.2	375.92	-177.34	1003.7	128.82	-386.39	1026.7	313.05	-382.84	1037.8	224.28	-233.75	913.06	453.18	-262.74	918.43	65.457	-251.23	1078.2	428.22	-282.88	1102.8	101.02	-406.16	998.97	262.97	-137.32	681.67	438.29	-33.468	618.1	393.78	-106.27	594.73	414.69	-70.008	698.51	417.71	-20.979	542.22	393.62	-34.214	520.75	270.33	-27.352	359.43	417	57.473	327.13	406.01	-1.8349	287.17	411.5	27.516	394.75	413.68	95.948	119.92	403.58	117.66	140.76	317.45	47.925	68.757	350.91	74.184	47.168	322.83	65.871	43.184	386.67	210.96	107.98	442.61	248.92	139.21	340.82	281.47	174.81	386.04	-377.84	679.98	133.17	-318.83	567.87	135.47	-384.1	590.89	155.79	-314.45	653.54	108.53	-353.41	494.12	151.32	-321.16	506.58	281.28	-441.03	379.01	152.23	-406.16	275.26	169.17	-463.09	306.54	165.15	-384.46	349.34	157.22	-505.6	113.58	202.11	-488.78	107.42	294.09	-585.66	84.796	258.18	-573.48	57.568	289.35	-588.52	57.16	229.14	-419.17	41.079	164.66	-374.11	38.284	271.41	-325.38	45.171	208.4	-330.69	1470.7	280.76	-383.94	1205.2	257.76
